:SAMPLES-PER-SECOND 30
:FULLY-SPECIFIED
:DEGREES
78
root  35.03891652 36.52276167 -14.70611002 11.07999325 6.501457691 3.452731848
lowerback  -8.54086113 2.073699951 2.543370485
upperback  -4.467619896 2.181489944 -3.936719894
thorax  0.4053820074 0.8282830119 -5.330530167
lowerneck  -15.29080009 -1.644000053 0.1079479977
upperneck  12.01070023 -3.236799955 5.48458004
head  6.254129887 -1.173269868 1.411900043
lclavicle  0 -4.497500157e-015 -2.743230041e-014
lhumerus  -43.32369995 26.18840027 69.93060303
lradius  -0.08501862735 -6.507048965e-006 26.9034977
lwrist  4.824992743e-007 -3.790274832e-007 -31.76070023
lhand  -3.517558029e-031 -36.92589951 -10.65839958
lfingers  90 7.125020027 -90
lthumb  94.82463074 -25.49361992 101.0951309
rclavicle  0 -4.497500157e-015 -2.743230041e-014
rhumerus  31.33580017 -1.350849509 -58.41289902
rradius  -5.16745672e-007 2.214343908e-008 81.03479767
rwrist  1.380293725e-006 2.528095422e-007 -172.6820068
rhand  -3.011436429e-031 2.830820084 -7.771259785
rfingers  -90 -7.125020027 -90
rthumb  -85.5383606 -8.22128582 -61.38029099
rfemur  -13.81899452 12.61352348 14.12588024
rtibia  -1.687662005 1.655604124 22.11418533
rfoot  -1.443024397 -16.68933487 -42.13414383
rtoes  4.154345512 19.5619297 -102.2284775
lfemur  -11.93160057 -19.614748 -18.12122536
ltibia  2.516196012 2.084426165 15.54178143
lfoot  0.6262841225 -29.53799438 31.45381927
ltoes  -8.537614822 -18.14836502 -115.7257538
79
root  35.03348583 36.52233214 -14.71280226 11.1709404 6.626283169 3.511679411
lowerback  -8.497469902 2.152050018 2.627510309
upperback  -4.35627985 2.295680046 -4.008910179
thorax  0.5155640244 0.8935160041 -5.443120003
lowerneck  -15.62730026 -1.77410996 0.1998330057
upperneck  12.01650047 -3.438489914 5.478590012
head  6.317230225 -1.261409879 1.373010159
lclavicle  0 -4.497500157e-015 -2.743230041e-014
lhumerus  -42.97180176 26.08670044 70.03150177
lradius  -0.0855614692 -6.507048965e-006 26.77840042
lwrist  4.824992743e-007 -3.790274832e-007 -31.61770058
lhand  -3.516674689e-031 -36.93180084 -10.66819954
lfingers  90 7.125020027 -90
lthumb  94.82949066 -25.50305367 101.1023483
rclavicle  0 -4.497500157e-015 -2.743230041e-014
rhumerus  32.71279526 -1.785979033 -57.9034996
rradius  -5.16745672e-007 2.214343908e-008 80.20030212
rwrist  1.380293725e-006 2.528095422e-007 -172.6100006
rhand  -3.006815134e-031 2.8854599 -7.839839935
rfingers  -90 -7.125020027 -90
rthumb  -85.55987549 -8.16466713 -61.33184433
rfemur  -13.96669292 12.51790428 14.11407185
rtibia  -1.758845925 1.635885954 22.26165771
rfoot  -1.506792545 -16.6833477 -42.14441681
rtoes  4.155870914 19.56184006 -102.2330322
lfemur  -12.01580906 -19.74820709 -18.14247704
ltibia  2.572396994 2.08305645 15.49373913
lfoot  0.6446257234 -29.47325706 31.4457283
ltoes  -8.545763016 -18.14627457 -115.7511444
80
root  35.02716004 36.52196268 -14.72267091 11.27807617 6.718349457 3.552985191
lowerback  -8.450139999 2.250400066 2.795050621
upperback  -4.307670116 2.422800064 -4.098579884
thorax  0.5645160079 0.9587100148 -5.621729851
lowerneck  -15.74120045 -1.89598 0.1564089954
upperneck  12.00699997 -3.612849951 5.574530125
head  6.341300011 -1.339280009 1.392290115
lclavicle  0 -4.497500157e-015 -2.743230041e-014
lhumerus  -42.84170151 25.8512001 70.11009979
lradius  -0.08610223234 -6.507048965e-006 26.77820206
lwrist  4.824992743e-007 -3.790274832e-007 -31.44599915
lhand  -3.517220446e-031 -36.97650146 -10.65530014
lfingers  90 7.125020027 -90
lthumb  94.84770966 -25.48881149 101.1490479
rclavicle  0 -4.497500157e-015 -2.743230041e-014
rhumerus  33.85000229 -2.137349844 -57.41400146
rradius  -5.16745672e-007 2.214343908e-008 79.43789673
rwrist  1.380293725e-006 2.528095422e-007 -172.6150055
rhand  -3.013983967e-031 3.10255003 -7.731339931
rfingers  -90 -7.125020027 -90
rthumb  -85.46040344 -8.273855209 -61.1129837
rfemur  -14.1258955 12.45474529 14.11660576
rtibia  -1.827746034 1.614902377 22.37414742
rfoot  -1.561972737 -16.66709328 -42.18436432
rtoes  4.173678398 19.5618763 -102.286171
lfemur  -12.19609165 -19.9305172 -18.09800339
ltibia  2.573405981 2.057194471 15.5523386
lfoot  0.6717237234 -29.391222 31.48566055
ltoes  -8.55440712 -18.14632034 -115.7796631
81
root  35.02528273 36.52162026 -14.72439203 11.33884716 6.899555206 3.591109276
lowerback  -8.429059982 2.284790039 2.838479757
upperback  -4.32682991 2.464380026 -4.132110119
thorax  0.5410090089 0.9771969914 -5.678860188
lowerneck  -15.60499954 -1.98774004 0.128332004
upperneck  11.91629982 -3.730439663 5.613629818
head  6.294129848 -1.399489999 1.398280144
lclavicle  0 -4.497500157e-015 -2.743230041e-014
lhumerus  -42.93420029 25.85320091 69.98680115
lradius  -0.08664102852 -6.507048965e-006 26.75270081
lwrist  4.824992743e-007 -3.790274832e-007 -31.58740044
lhand  -3.520770081e-031 -36.94029999 -10.61769962
lfingers  90 7.125020027 -90
lthumb  94.82269287 -25.45320129 101.1068039
rclavicle  0 -4.497500157e-015 -2.743230041e-014
rhumerus  35.02050018 -2.370440006 -57.09980011
rradius  -5.16745672e-007 2.214343908e-008 78.54669952
rwrist  1.380293725e-006 2.528095422e-007 -172.3760071
rhand  -3.047754436e-031 3.298160076 -7.226560116
rfingers  -90 -7.125020027 -90
rthumb  -85.1696167 -8.727737427 -60.88576889
rfemur  -14.18447685 12.37430286 14.12955379
rtibia  -1.879711866 1.639364362 22.43214417
rfoot  -1.58214736 -16.5528717 -42.23416138
rtoes  4.17502594 19.56202316 -102.2901917
lfemur  -12.32287788 -20.06869507 -18.0826149
ltibia  2.5704 2.040067673 15.62465668
lfoot  0.6662785411 -29.36922073 31.3792572
ltoes  -8.545493126 -18.1504097 -115.7510452
82
root  35.02731924 36.52127484 -14.72321308 11.35253334 7.126577377 3.654617071
lowerback  -8.420701027 2.291820049 2.843190432
upperback  -4.375030041 2.469419956 -4.119480133
thorax  0.4866259992 0.9762759805 -5.668729782
lowerneck  -15.50590038 -2.082679987 -0.00353226997
upperneck  11.89099979 -3.839189768 5.690100193
head  6.276529789 -1.454670072 1.43381989
lclavicle  0 -4.497500157e-015 -2.743230041e-014
lhumerus  -43.08150101 26.08639908 69.75959778
lradius  -0.08717793226 -6.507048965e-006 26.68840027
lwrist  4.824992743e-007 -3.790274832e-007 -31.91189957
lhand  -3.520124773e-031 -36.95069885 -10.6239996
lfingers  90 7.125020027 -90
lthumb  94.82894135 -25.45902252 101.118576
rclavicle  0 -4.497500157e-015 -2.743230041e-014
rhumerus  36.13990021 -2.55597043 -56.77249908
rradius  -5.16745672e-007 2.214343908e-008 77.66660309
rwrist  1.380293725e-006 2.528095422e-007 -172.1779938
rhand  -3.038549489e-031 3.732569933 -7.360239983
rfingers  -90 -7.125020027 -90
rthumb  -85.13742828 -8.63818264 -60.47213364
rfemur  -14.17362785 12.32720661 14.10813141
rtibia  -1.926087618 1.652469039 22.49358368
rfoot  -1.64803946 -16.46992493 -42.40370178
rtoes  4.164349556 19.56227493 -102.2583313
lfemur  -12.29445934 -20.11710739 -18.16869545
ltibia  2.636853218 2.064133883 15.55662632
lfoot  0.6552422643 -29.40482903 31.21121979
ltoes  -8.529376984 -18.15778732 -115.6993179
83
root  35.02970418 36.52089637 -14.71953655 11.3636713 7.381724834 3.710589886
lowerback  -8.415690422 2.277470112 2.817339897
upperback  -4.382740021 2.452539921 -4.107500076
thorax  0.4723240137 0.9680920243 -5.643159866
lowerneck  -15.48820019 -2.176359892 -0.02585849911
upperneck  11.8263998 -3.951169729 5.666069984
head  6.256100178 -1.513079882 1.418740034
lclavicle  0 -4.497500157e-015 -2.743230041e-014
lhumerus  -43.15840149 26.38199997 69.55750275
lradius  -0.08771306276 -6.507048965e-006 26.65299988
lwrist  4.824992743e-007 -3.790274832e-007 -32.2845993
lhand  -3.520283685e-031 -36.96620178 -10.61989975
lfingers  90 7.125020027 -90
lthumb  94.83532715 -25.454422 101.134819
rclavicle  0 -4.497500157e-015 -2.743230041e-014
rhumerus  37.37799835 -2.743749142 -56.41770172
rradius  -5.16745672e-007 2.214343908e-008 76.75939941
rwrist  1.380293725e-006 2.528095422e-007 -171.9049988
rhand  -3.050857046e-031 3.738430023 -7.176939964
rfingers  -90 -7.125020027 -90
rthumb  -85.04466248 -8.79805851 -60.45265579
rfemur  -14.14508915 12.24984837 14.09671688
rtibia  -1.960182905 1.669743776 22.54231453
rfoot  -1.715378046 -16.40230179 -42.57645798
rtoes  4.162008286 19.56262207 -102.2513428
lfemur  -12.20537186 -20.14097404 -18.25911331
ltibia  2.738808632 2.132183075 15.40485764
lfoot  0.6561053395 -29.491642 31.05945778
ltoes  -8.525744438 -18.15944862 -115.6876678
84
root  35.03011568 36.52052992 -14.71800166 11.36929607 7.60761261 3.748384237
lowerback  -8.438280106 2.277640343 2.795399666
upperback  -4.379570007 2.454600096 -4.112170219
thorax  0.4876199961 0.9699620008 -5.634689808
lowerneck  -15.5376997 -2.271440029 -0.06378679723
upperneck  11.82349968 -4.072390079 5.672599792
head  6.268000126 -1.571999907 1.414379954
lclavicle  0 -4.497500157e-015 -2.743230041e-014
lhumerus  -43.20399857 26.63100052 69.39779663
lradius  -0.08822961152 -6.507048965e-006 26.6386013
lwrist  4.824992743e-007 -3.790274832e-007 -32.57559967
lhand  -3.518412566e-031 -36.95640182 -10.64379978
lfingers  90 7.125020027 -90
lthumb  94.83582306 -25.47818375 101.1264801
rclavicle  0 -4.497500157e-015 -2.743230041e-014
rhumerus  38.4845047 -2.913470984 -55.83480072
rradius  -5.16745672e-007 2.214343908e-008 75.96250153
rwrist  1.380293725e-006 2.528095422e-007 -171.9160004
rhand  -3.065929775e-031 3.905169964 -6.95126009
rfingers  -90 -7.125020027 -90
rthumb  -84.89297485 -9.004335403 -60.27241135
rfemur  -14.1282959 12.12367058 14.11378288
rtibia  -1.993557215 1.680989742 22.59448242
rfoot  -1.767793417 -16.36745644 -42.67496109
rtoes  4.157502651 19.56305504 -102.2378998
lfemur  -12.14825249 -20.19411087 -18.30307961
ltibia  2.812704563 2.194538355 15.29727459
lfoot  0.6711150408 -29.57818031 30.97410965
ltoes  -8.513708115 -18.1649456 -115.6490479
85
root  35.02981231 36.52019351 -14.71747 11.35565281 7.807575703 3.756233215
lowerback  -8.464639664 2.301800013 2.788330317
upperback  -4.400179863 2.483619928 -4.147339821
thorax  0.4853369892 0.9823219776 -5.664680004
lowerneck  -15.54160023 -2.377310038 -0.1130160019
upperneck  11.8277998 -4.208529949 5.693099976
head  6.275629997 -1.638550162 1.415089965
lclavicle  0 -4.497500157e-015 -2.743230041e-014
lhumerus  -43.26089859 26.87809944 69.18060303
lradius  -0.08872225136 -6.507048965e-006 26.53819847
lwrist  4.824992743e-007 -3.790274832e-007 -32.91859818
lhand  -3.516438191e-031 -36.95259857 -10.66810036
lfingers  90 7.125020027 -90
lthumb  94.83921814 -25.50214386 101.1246185
rclavicle  0 -4.497500157e-015 -2.743230041e-014
rhumerus  39.59829712 -3.151929855 -55.5326004
rradius  -5.16745672e-007 2.214343908e-008 74.98130035
rwrist  1.380293725e-006 2.528095422e-007 -171.7030029
rhand  -3.047898801e-031 4.234549999 -7.216599941
rfingers  -90 -7.125020027 -90
rthumb  -84.9497757 -8.794501305 -59.97179794
rfemur  -14.09301758 12.01841831 14.16059399
rtibia  -2.014530182 1.731408596 22.61888123
rfoot  -1.783501148 -16.2700901 -42.73180771
rtoes  4.162433624 19.56356621 -102.2526169
lfemur  -12.11864471 -20.21332932 -18.30337906
ltibia  2.84245801 2.257971525 15.26852131
lfoot  0.6817990541 -29.71227455 30.86844254
ltoes  -8.543223381 -18.1514492 -115.7437592
